# Blender v2.75 (sub 0) OBJ File: 'platforms.blend'
# www.blender.org
mtllib platforms_goal.mtl
o Goal_Cube.005
v 20.000000 -1.000000 -20.000000
v 20.000000 -1.000000 20.000000
v -20.000002 -1.000000 19.999996
v -19.999992 -1.000000 -20.000008
v 20.000010 1.000000 -19.999990
v 19.999989 1.000000 20.000011
v -20.000008 1.000000 19.999992
v -19.999998 1.000000 -20.000000
v 20.000000 1.000000 0.000010
v 0.000006 1.000000 -19.999996
v -0.000010 1.000000 20.000002
v -20.000004 1.000000 -0.000004
v 19.999994 1.000000 10.000010
v -9.999996 1.000000 -19.999998
v -10.000009 1.000000 19.999996
v -20.000000 1.000000 -10.000002
v 20.000004 1.000000 -9.999990
v 10.000008 1.000000 -19.999992
v 9.999990 1.000000 20.000008
v -20.000006 1.000000 9.999994
v -0.000006 1.000000 10.000003
v 0.000002 1.000000 -9.999996
v 9.999999 1.000000 0.000007
v -10.000003 1.000000 0.000000
v -10.000000 1.000000 -9.999999
v 10.000004 1.000000 -9.999992
v 9.999994 1.000000 10.000007
v -10.000006 1.000000 9.999998
v 19.999992 1.000000 15.000011
v -14.999997 1.000000 -20.000000
v -15.000008 1.000000 19.999994
v -20.000000 1.000000 -15.000001
v 20.000002 1.000000 -4.999990
v 5.000007 1.000000 -19.999994
v 4.999990 1.000000 20.000004
v -20.000004 1.000000 4.999995
v -0.000008 1.000000 15.000002
v 0.000000 1.000000 -4.999996
v 15.000000 1.000000 0.000008
v -5.000002 1.000000 0.000002
v 19.999996 1.000000 5.000010
v -4.999995 1.000000 -19.999996
v -5.000009 1.000000 20.000000
v -20.000002 1.000000 -5.000003
v 20.000008 1.000000 -14.999990
v 15.000009 1.000000 -19.999992
v 14.999989 1.000000 20.000010
v -20.000008 1.000000 14.999993
v -0.000004 1.000000 5.000003
v 0.000004 1.000000 -14.999996
v 4.999999 1.000000 0.000005
v -15.000004 1.000000 -0.000002
v -10.000002 1.000000 -5.000000
v -9.999998 1.000000 -14.999998
v -4.999999 1.000000 -9.999998
v -15.000000 1.000000 -10.000000
v 10.000002 1.000000 -4.999993
v 10.000006 1.000000 -14.999992
v 15.000004 1.000000 -9.999991
v 5.000003 1.000000 -9.999994
v 9.999992 1.000000 15.000008
v 9.999996 1.000000 5.000007
v 14.999994 1.000000 10.000009
v 4.999994 1.000000 10.000005
v -10.000008 1.000000 14.999997
v -10.000004 1.000000 4.999999
v -5.000006 1.000000 10.000000
v -15.000006 1.000000 9.999996
v -15.000005 1.000000 4.999997
v -5.000004 1.000000 5.000001
v -5.000008 1.000000 15.000000
v 4.999996 1.000000 5.000005
v 14.999997 1.000000 5.000008
v 14.999991 1.000000 15.000010
v 5.000005 1.000000 -14.999994
v 15.000006 1.000000 -14.999992
v 15.000002 1.000000 -4.999991
v -14.999998 1.000000 -15.000000
v -4.999997 1.000000 -14.999997
v -5.000001 1.000000 -4.999998
v -15.000002 1.000000 -5.000001
v 5.000001 1.000000 -4.999994
v 4.999992 1.000000 15.000004
v -15.000007 1.000000 14.999995
v 19.999990 1.000000 17.500011
v -17.499998 1.000000 -20.000000
v -17.500008 1.000000 19.999992
v -20.000000 1.000000 -17.500000
v 20.000000 1.000000 -2.499990
v 2.500006 1.000000 -19.999996
v 2.499990 1.000000 20.000004
v -20.000004 1.000000 2.499996
v -0.000009 1.000000 17.500002
v -0.000001 1.000000 -2.499996
v 17.500000 1.000000 0.000009
v -2.500002 1.000000 0.000003
v 19.999996 1.000000 7.500010
v -7.499996 1.000000 -19.999996
v -7.500009 1.000000 19.999998
v -20.000000 1.000000 -7.500002
v 20.000006 1.000000 -12.499990
v 12.500008 1.000000 -19.999992
v 12.499989 1.000000 20.000008
v -20.000008 1.000000 12.499994
v -0.000005 1.000000 7.500003
v 0.000003 1.000000 -12.499996
v 7.499999 1.000000 0.000006
v -12.500004 1.000000 -0.000001
v -10.000002 1.000000 -2.500000
v -9.999999 1.000000 -12.499998
v -2.499999 1.000000 -9.999997
v -12.500000 1.000000 -10.000000
v 10.000000 1.000000 -2.499993
v 10.000005 1.000000 -12.499992
v 17.500004 1.000000 -9.999990
v 7.500003 1.000000 -9.999993
v 9.999990 1.000000 17.500008
v 9.999995 1.000000 7.500007
v 17.499994 1.000000 10.000010
v 7.499994 1.000000 10.000006
v -10.000008 1.000000 17.499996
v -10.000005 1.000000 7.499999
v -2.500006 1.000000 10.000002
v -12.500006 1.000000 9.999997
v 19.999992 1.000000 12.500011
v -12.499996 1.000000 -20.000000
v -12.500008 1.000000 19.999996
v -20.000000 1.000000 -12.500002
v 20.000004 1.000000 -7.499990
v 7.500007 1.000000 -19.999992
v 7.499990 1.000000 20.000006
v -20.000004 1.000000 7.499995
v -0.000007 1.000000 12.500002
v 0.000001 1.000000 -7.499996
v 12.500000 1.000000 0.000007
v -7.500003 1.000000 0.000001
v 19.999998 1.000000 2.500010
v -2.499995 1.000000 -19.999996
v -2.500009 1.000000 20.000000
v -20.000004 1.000000 -2.500003
v 20.000008 1.000000 -17.499990
v 17.500010 1.000000 -19.999992
v 17.499989 1.000000 20.000011
v -20.000008 1.000000 17.499992
v -0.000003 1.000000 2.500004
v 0.000005 1.000000 -17.499996
v 2.499998 1.000000 0.000005
v -17.500004 1.000000 -0.000003
v -10.000001 1.000000 -7.499999
v -9.999997 1.000000 -17.499998
v -7.500000 1.000000 -9.999998
v -17.500000 1.000000 -10.000001
v 10.000003 1.000000 -7.499992
v 10.000007 1.000000 -17.499992
v 12.500004 1.000000 -9.999992
v 2.500002 1.000000 -9.999995
v 9.999993 1.000000 12.500008
v 9.999998 1.000000 2.500007
v 12.499994 1.000000 10.000008
v 2.499994 1.000000 10.000004
v -10.000007 1.000000 12.499998
v -10.000004 1.000000 2.500000
v -7.500006 1.000000 9.999999
v -17.500006 1.000000 9.999995
v -15.000006 1.000000 7.499997
v -15.000004 1.000000 2.499998
v -12.500004 1.000000 4.999998
v -17.500004 1.000000 4.999996
v -5.000005 1.000000 7.500000
v -5.000003 1.000000 2.500001
v -2.500004 1.000000 5.000002
v -7.500004 1.000000 5.000000
v -5.000009 1.000000 17.500000
v -5.000007 1.000000 12.500000
v -2.500008 1.000000 15.000001
v -7.500008 1.000000 14.999998
v 4.999995 1.000000 7.500005
v 4.999997 1.000000 2.500005
v 7.499996 1.000000 5.000006
v 2.499996 1.000000 5.000004
v 14.999996 1.000000 7.500009
v 14.999998 1.000000 2.500008
v 17.499996 1.000000 5.000009
v 12.499996 1.000000 5.000008
v 14.999990 1.000000 17.500010
v 14.999992 1.000000 12.500010
v 17.499992 1.000000 15.000010
v 12.499992 1.000000 15.000009
v 5.000004 1.000000 -12.499994
v 5.000006 1.000000 -17.499994
v 7.500005 1.000000 -14.999993
v 2.500004 1.000000 -14.999995
v 15.000005 1.000000 -12.499992
v 15.000008 1.000000 -17.499992
v 17.500008 1.000000 -14.999991
v 12.500006 1.000000 -14.999992
v 15.000001 1.000000 -2.499992
v 15.000003 1.000000 -7.499991
v 17.500002 1.000000 -4.999991
v 12.500002 1.000000 -4.999992
v -14.999999 1.000000 -12.500000
v -14.999998 1.000000 -17.500000
v -12.499998 1.000000 -14.999999
v -17.500000 1.000000 -15.000000
v -4.999998 1.000000 -12.499998
v -4.999996 1.000000 -17.499996
v -2.499997 1.000000 -14.999996
v -7.499998 1.000000 -14.999998
v -5.000002 1.000000 -2.499998
v -5.000000 1.000000 -7.499998
v -2.500000 1.000000 -4.999997
v -7.500001 1.000000 -4.999999
v -15.000003 1.000000 -2.500001
v -15.000001 1.000000 -7.500000
v -12.500002 1.000000 -5.000000
v -17.500002 1.000000 -5.000002
v 5.000000 1.000000 -2.499995
v 5.000002 1.000000 -7.499994
v 7.500001 1.000000 -4.999993
v 2.500000 1.000000 -4.999995
v 4.999991 1.000000 17.500004
v 4.999993 1.000000 12.500004
v 7.499992 1.000000 15.000006
v 2.499992 1.000000 15.000003
v -15.000008 1.000000 17.499994
v -15.000006 1.000000 12.499996
v -12.500008 1.000000 14.999996
v -17.500008 1.000000 14.999994
v -17.500008 1.000000 12.499994
v -12.500007 1.000000 12.499996
v -12.500008 1.000000 17.499996
v 2.499993 1.000000 12.500004
v 7.499993 1.000000 12.500006
v 7.499991 1.000000 17.500006
v 2.500001 1.000000 -7.499995
v 7.500002 1.000000 -7.499993
v 7.500000 1.000000 -2.499994
v -17.500000 1.000000 -7.500001
v -12.500001 1.000000 -7.500000
v -12.500003 1.000000 -2.500000
v -7.500000 1.000000 -7.499999
v -2.500000 1.000000 -7.499997
v -2.500001 1.000000 -2.499997
v -7.499997 1.000000 -17.499996
v -2.499996 1.000000 -17.499996
v -2.499998 1.000000 -12.499996
v -17.500000 1.000000 -17.500000
v -12.499997 1.000000 -17.500000
v -12.499999 1.000000 -12.500000
v 12.500003 1.000000 -7.499992
v 17.500004 1.000000 -7.499990
v 17.500000 1.000000 -2.499991
v 12.500007 1.000000 -17.499992
v 17.500008 1.000000 -17.499992
v 17.500006 1.000000 -12.499990
v 2.500005 1.000000 -17.499996
v 7.500006 1.000000 -17.499992
v 7.500004 1.000000 -12.499993
v 12.499993 1.000000 12.500008
v 17.499992 1.000000 12.500010
v 17.499990 1.000000 17.500011
v 12.499998 1.000000 2.500007
v 17.499998 1.000000 2.500009
v 17.499996 1.000000 7.500010
v 2.499997 1.000000 2.500005
v 7.499998 1.000000 2.500006
v 7.499995 1.000000 7.500006
v -7.500007 1.000000 12.499998
v -2.500007 1.000000 12.500002
v -2.500009 1.000000 17.500000
v -7.500003 1.000000 2.500000
v -2.500003 1.000000 2.500002
v -2.500005 1.000000 7.500002
v -17.500004 1.000000 2.499997
v -12.500004 1.000000 2.499999
v -12.500005 1.000000 7.499998
v -17.500004 1.000000 7.499996
v -7.500005 1.000000 7.500000
v -7.500008 1.000000 17.499998
v 2.499995 1.000000 7.500004
v 12.499995 1.000000 7.500008
v 12.499990 1.000000 17.500008
v 2.500003 1.000000 -12.499995
v 12.500005 1.000000 -12.499992
v 12.500001 1.000000 -2.499992
v -17.500000 1.000000 -12.500000
v -7.499999 1.000000 -12.499998
v -7.500002 1.000000 -2.499999
v -17.500004 1.000000 -2.500002
v 2.500000 1.000000 -2.499995
v 2.499991 1.000000 17.500004
v -17.500008 1.000000 17.499992
v -0.011112 0.244241 -0.494775
v -0.011112 0.944241 -0.994775
v 0.086434 0.244241 -0.485168
v 0.183979 0.944241 -0.975560
v 0.180230 0.244241 -0.456715
v 0.371572 0.944241 -0.918654
v 0.266674 0.244241 -0.410510
v 0.544459 0.944241 -0.826244
v 0.342442 0.244241 -0.348328
v 0.695995 0.944241 -0.701882
v 0.404623 0.244241 -0.272560
v 0.820358 0.944241 -0.550345
v 0.450828 0.244241 -0.186117
v 0.912768 0.944241 -0.377458
v 0.479281 0.244241 -0.092320
v 0.969674 0.944241 -0.189865
v 0.488889 0.244241 0.005225
v 0.988888 0.944241 0.005225
v 0.479281 0.244241 0.102770
v 0.969674 0.944241 0.200315
v 0.450828 0.244241 0.196567
v 0.912768 0.944241 0.387908
v 0.404623 0.244241 0.283010
v 0.820358 0.944241 0.560795
v 0.342442 0.244241 0.358778
v 0.695995 0.944241 0.712332
v 0.266674 0.244241 0.420960
v 0.544459 0.944241 0.836695
v 0.180230 0.244241 0.467165
v 0.371571 0.944241 0.929105
v 0.086434 0.244241 0.495618
v 0.183979 0.944241 0.986011
v -0.011112 0.244241 0.505225
v -0.011112 0.944241 1.005225
v -0.108657 0.244241 0.495618
v -0.206202 0.944241 0.986011
v -0.202453 0.244241 0.467165
v -0.393795 0.944241 0.929104
v -0.288897 0.244241 0.420960
v -0.566682 0.944241 0.836695
v -0.364665 0.244241 0.358778
v -0.718219 0.944241 0.712332
v -0.426847 0.244241 0.283010
v -0.842582 0.944241 0.560795
v -0.473051 0.244241 0.196566
v -0.934991 0.944241 0.387908
v -0.501504 0.244241 0.102770
v -0.991897 0.944241 0.200315
v -0.511111 0.244241 0.005225
v -1.011112 0.944241 0.005224
v -0.501504 0.244241 -0.092321
v -0.991897 0.944241 -0.189866
v -0.473051 0.244241 -0.186117
v -0.934990 0.944241 -0.377459
v -0.426846 0.244241 -0.272561
v -0.842580 0.944241 -0.550346
v -0.364664 0.244241 -0.348329
v -0.718217 0.944241 -0.701882
v -0.288896 0.244241 -0.410510
v -0.566680 0.944241 -0.826245
v -0.202452 0.244241 -0.456715
v -0.393793 0.944241 -0.918655
v -0.108656 0.244241 -0.485168
v -0.206200 0.944241 -0.975560
vn 0.000000 -1.000000 0.000000
vn -0.630000 0.579400 -0.517100
vn 1.000000 0.000000 0.000000
vn -0.000000 -0.000000 1.000000
vn -1.000000 -0.000000 -0.000000
vn 0.000000 0.000000 -1.000000
vn 0.000000 1.000000 0.000000
vn -0.718800 0.579400 -0.384200
vn -0.780000 0.579400 -0.236600
vn -0.811100 0.579400 -0.079900
vn -0.811100 0.579400 0.079900
vn -0.780000 0.579400 0.236600
vn -0.718800 0.579400 0.384200
vn -0.630000 0.579400 0.517100
vn -0.517100 0.579400 0.630000
vn -0.384200 0.579400 0.718800
vn -0.236600 0.579400 0.780000
vn -0.079900 0.579400 0.811100
vn -0.517100 0.579400 -0.630000
vn -0.384200 0.579400 -0.718800
vn -0.236600 0.579400 -0.780000
vn -0.079900 0.579400 -0.811100
vn 0.079900 0.579400 -0.811100
vn 0.236600 0.579400 -0.780000
vn 0.384200 0.579400 -0.718800
vn 0.517100 0.579400 -0.630000
vn 0.630000 0.579400 -0.517100
vn 0.718800 0.579400 -0.384200
vn 0.780000 0.579400 -0.236600
vn 0.811100 0.579400 -0.079900
vn 0.811100 0.579400 0.079900
vn 0.780000 0.579400 0.236600
vn 0.718800 0.579400 0.384200
vn 0.630000 0.579400 0.517100
vn 0.517100 0.579400 0.630000
vn 0.384200 0.579400 0.718800
vn 0.079900 0.579400 0.811100
vn 0.236600 0.579400 0.780000
vn 0.000000 0.999300 -0.037300
vn -0.036900 0.999300 0.000000
vn -0.000000 0.999300 0.037000
vn 0.037400 0.999300 0.000000
vn 0.003200 0.999500 -0.032000
vn 0.007700 0.999700 -0.025200
vn 0.011000 0.999700 -0.020700
vn 0.014100 0.999800 -0.017200
vn 0.017200 0.999800 -0.014100
vn 0.020700 0.999700 -0.011100
vn 0.025300 0.999700 -0.007700
vn 0.032100 0.999500 -0.003200
vn 0.032100 0.999500 0.003200
vn 0.025200 0.999700 0.007700
vn 0.020600 0.999700 0.011000
vn 0.017100 0.999800 0.014000
vn 0.014000 0.999800 0.017100
vn 0.011000 0.999700 0.020600
vn 0.007600 0.999700 0.025100
vn 0.003100 0.999500 0.031800
vn -0.003100 0.999500 0.031800
vn -0.007600 0.999700 0.025000
vn -0.011000 0.999700 0.020500
vn -0.014000 0.999800 0.017000
vn -0.017000 0.999800 0.013900
vn -0.020500 0.999700 0.010900
vn -0.025000 0.999700 0.007600
vn -0.031700 0.999500 0.003100
vn -0.031700 0.999500 -0.003100
vn -0.025000 0.999700 -0.007600
vn -0.020500 0.999700 -0.011000
vn -0.017000 0.999800 -0.014000
vn -0.014000 0.999800 -0.017100
vn -0.011000 0.999700 -0.020600
vn -0.007600 0.999700 -0.025100
vn -0.003200 0.999500 -0.032000
usemtl Material.001
s off
f 1//1 2//1 3//1 4//1
f 315//2 317//2 318//2 316//2
f 1//3 5//3 141//3 45//3 101//3 17//3 129//3 33//3 89//3 9//3 137//3 41//3 97//3 13//3 125//3 29//3 85//3 6//3 2//3
f 2//4 6//4 143//4 47//4 103//4 19//4 131//4 35//4 91//4 11//4 139//4 43//4 99//4 15//4 127//4 31//4 87//4 7//4 3//4
f 3//5 7//5 144//5 48//5 104//5 20//5 132//5 36//5 92//5 12//5 140//5 44//5 100//5 16//5 128//5 32//5 88//5 8//5 4//5
f 5//6 1//6 4//6 8//6 86//6 30//6 126//6 14//6 98//6 42//6 138//6 10//6 90//6 34//6 130//6 18//6 102//6 46//6 142//6
f 289//7 140//7 12//7 148//7
f 288//7 109//7 24//7 136//7
f 287//7 110//7 25//7 151//7
f 286//7 128//7 16//7 152//7
f 285//7 113//7 23//7 135//7
f 284//7 114//7 26//7 155//7
f 283//7 106//7 22//7 156//7
f 313//8 315//8 316//8 314//8
f 281//7 118//7 27//7 159//7
f 280//7 105//7 21//7 160//7
f 278//7 122//7 28//7 163//7
f 277//7 132//7 20//7 164//7
f 276//7 165//7 68//7 124//7
f 275//7 166//7 69//7 167//7
f 274//7 92//7 36//7 168//7
f 273//7 169//7 67//7 123//7
f 272//7 170//7 70//7 171//7
f 271//7 162//7 66//7 172//7
f 269//7 174//7 71//7 175//7
f 268//7 161//7 65//7 176//7
f 267//7 177//7 64//7 120//7
f 266//7 178//7 72//7 179//7
f 265//7 145//7 49//7 180//7
f 264//7 181//7 63//7 119//7
f 263//7 182//7 73//7 183//7
f 262//7 158//7 62//7 184//7
f 311//9 313//9 314//9 312//9
f 260//7 186//7 74//7 187//7
f 259//7 157//7 61//7 188//7
f 258//7 189//7 60//7 116//7
f 257//7 190//7 75//7 191//7
f 256//7 146//7 50//7 192//7
f 255//7 193//7 59//7 115//7
f 254//7 194//7 76//7 195//7
f 253//7 154//7 58//7 196//7
f 252//7 197//7 39//7 95//7
f 251//7 198//7 77//7 199//7
f 250//7 153//7 57//7 200//7
f 249//7 201//7 56//7 112//7
f 248//7 202//7 78//7 203//7
f 247//7 88//7 32//7 204//7
f 246//7 205//7 55//7 111//7
f 245//7 206//7 79//7 207//7
f 244//7 150//7 54//7 208//7
f 243//7 209//7 40//7 96//7
f 242//7 210//7 80//7 211//7
f 241//7 149//7 53//7 212//7
f 240//7 213//7 52//7 108//7
f 239//7 214//7 81//7 215//7
f 238//7 100//7 44//7 216//7
f 237//7 217//7 51//7 107//7
f 236//7 218//7 82//7 219//7
f 235//7 134//7 38//7 220//7
f 233//7 222//7 83//7 223//7
f 232//7 133//7 37//7 224//7
f 230//7 226//7 84//7 227//7
f 229//7 104//7 48//7 228//7
f 226//7 229//7 228//7 84//7
f 68//7 164//7 229//7 226//7
f 164//7 20//7 104//7 229//7
f 161//7 230//7 227//7 65//7
f 28//7 124//7 230//7 161//7
f 124//7 68//7 226//7 230//7
f 309//10 311//10 312//10 310//10
f 65//7 227//7 231//7 121//7
f 227//7 84//7 225//7 231//7
f 222//7 232//7 224//7 83//7
f 64//7 160//7 232//7 222//7
f 160//7 21//7 133//7 232//7
f 157//7 233//7 223//7 61//7
f 27//7 120//7 233//7 157//7
f 120//7 64//7 222//7 233//7
f 61//7 223//7 234//7 117//7
f 223//7 83//7 221//7 234//7
f 218//7 235//7 220//7 82//7
f 60//7 156//7 235//7 218//7
f 156//7 22//7 134//7 235//7
f 153//7 236//7 219//7 57//7
f 26//7 116//7 236//7 153//7
f 116//7 60//7 218//7 236//7
f 113//7 237//7 107//7 23//7
f 57//7 219//7 237//7 113//7
f 219//7 82//7 217//7 237//7
f 214//7 238//7 216//7 81//7
f 56//7 152//7 238//7 214//7
f 152//7 16//7 100//7 238//7
f 149//7 239//7 215//7 53//7
f 25//7 112//7 239//7 149//7
f 112//7 56//7 214//7 239//7
f 109//7 240//7 108//7 24//7
f 53//7 215//7 240//7 109//7
f 215//7 81//7 213//7 240//7
f 210//7 241//7 212//7 80//7
f 55//7 151//7 241//7 210//7
f 151//7 25//7 149//7 241//7
f 134//7 242//7 211//7 38//7
f 22//7 111//7 242//7 134//7
f 111//7 55//7 210//7 242//7
f 38//7 211//7 243//7 94//7
f 211//7 80//7 209//7 243//7
f 206//7 244//7 208//7 79//7
f 307//11 309//11 310//11 308//11
f 146//7 245//7 207//7 50//7
f 305//12 307//12 308//12 306//12
f 106//7 246//7 111//7 22//7
f 50//7 207//7 246//7 106//7
f 207//7 79//7 205//7 246//7
f 202//7 247//7 204//7 78//7
f 150//7 248//7 203//7 54//7
f 303//13 305//13 306//13 304//13
f 110//7 249//7 112//7 25//7
f 54//7 203//7 249//7 110//7
f 203//7 78//7 201//7 249//7
f 198//7 250//7 200//7 77//7
f 59//7 155//7 250//7 198//7
f 155//7 26//7 153//7 250//7
f 129//7 251//7 199//7 33//7
f 17//7 115//7 251//7 129//7
f 115//7 59//7 198//7 251//7
f 89//7 252//7 95//7 9//7
f 33//7 199//7 252//7 89//7
f 199//7 77//7 197//7 252//7
f 194//7 253//7 196//7 76//7
f 301//14 303//14 304//14 302//14
f 141//7 254//7 195//7 45//7
f 101//7 255//7 115//7 17//7
f 45//7 195//7 255//7 101//7
f 195//7 76//7 193//7 255//7
f 190//7 256//7 192//7 75//7
f 299//15 301//15 302//15 300//15
f 154//7 257//7 191//7 58//7
f 297//16 299//16 300//16 298//16
f 114//7 258//7 116//7 26//7
f 58//7 191//7 258//7 114//7
f 191//7 75//7 189//7 258//7
f 186//7 259//7 188//7 74//7
f 63//7 159//7 259//7 186//7
f 159//7 27//7 157//7 259//7
f 125//7 260//7 187//7 29//7
f 13//7 119//7 260//7 125//7
f 119//7 63//7 186//7 260//7
f 29//7 187//7 261//7 85//7
f 187//7 74//7 185//7 261//7
f 182//7 262//7 184//7 73//7
f 39//7 135//7 262//7 182//7
f 135//7 23//7 158//7 262//7
f 137//7 263//7 183//7 41//7
f 9//7 95//7 263//7 137//7
f 95//7 39//7 182//7 263//7
f 97//7 264//7 119//7 13//7
f 41//7 183//7 264//7 97//7
f 183//7 73//7 181//7 264//7
f 178//7 265//7 180//7 72//7
f 51//7 147//7 265//7 178//7
f 158//7 266//7 179//7 62//7
f 23//7 107//7 266//7 158//7
f 107//7 51//7 178//7 266//7
f 118//7 267//7 120//7 27//7
f 62//7 179//7 267//7 118//7
f 179//7 72//7 177//7 267//7
f 174//7 268//7 176//7 71//7
f 67//7 163//7 268//7 174//7
f 163//7 28//7 161//7 268//7
f 133//7 269//7 175//7 37//7
f 21//7 123//7 269//7 133//7
f 123//7 67//7 174//7 269//7
f 295//17 297//17 298//17 296//17
f 37//7 175//7 270//7 93//7
f 175//7 71//7 173//7 270//7
f 170//7 271//7 172//7 70//7
f 40//7 136//7 271//7 170//7
f 136//7 24//7 162//7 271//7
f 145//7 272//7 171//7 49//7
f 96//7 40//7 170//7 272//7
f 105//7 273//7 123//7 21//7
f 49//7 171//7 273//7 105//7
f 171//7 70//7 169//7 273//7
f 166//7 274//7 168//7 69//7
f 52//7 148//7 274//7 166//7
f 148//7 12//7 92//7 274//7
f 162//7 275//7 167//7 66//7
f 24//7 108//7 275//7 162//7
f 108//7 52//7 166//7 275//7
f 122//7 276//7 124//7 28//7
f 66//7 167//7 276//7 122//7
f 167//7 69//7 165//7 276//7
f 165//7 277//7 164//7 68//7
f 69//7 168//7 277//7 165//7
f 168//7 36//7 132//7 277//7
f 169//7 278//7 163//7 67//7
f 70//7 172//7 278//7 169//7
f 172//7 66//7 122//7 278//7
f 71//7 176//7 279//7 173//7
f 176//7 65//7 121//7 279//7
f 177//7 280//7 160//7 64//7
f 72//7 180//7 280//7 177//7
f 180//7 49//7 105//7 280//7
f 181//7 281//7 159//7 63//7
f 73//7 184//7 281//7 181//7
f 184//7 62//7 118//7 281//7
f 293//18 295//18 296//18 294//18
f 74//7 188//7 282//7 185//7
f 188//7 61//7 117//7 282//7
f 189//7 283//7 156//7 60//7
f 75//7 192//7 283//7 189//7
f 192//7 50//7 106//7 283//7
f 193//7 284//7 155//7 59//7
f 76//7 196//7 284//7 193//7
f 196//7 58//7 114//7 284//7
f 197//7 285//7 135//7 39//7
f 77//7 200//7 285//7 197//7
f 200//7 57//7 113//7 285//7
f 201//7 286//7 152//7 56//7
f 78//7 204//7 286//7 201//7
f 204//7 32//7 128//7 286//7
f 205//7 287//7 151//7 55//7
f 79//7 208//7 287//7 205//7
f 208//7 54//7 110//7 287//7
f 209//7 288//7 136//7 40//7
f 80//7 212//7 288//7 209//7
f 212//7 53//7 109//7 288//7
f 213//7 289//7 148//7 52//7
f 81//7 216//7 289//7 213//7
f 216//7 44//7 140//7 289//7
f 217//7 290//7 147//7 51//7
f 82//7 220//7 290//7 217//7
f 220//7 38//7 94//7 290//7
f 83//7 224//7 291//7 221//7
f 224//7 37//7 93//7 291//7
f 84//7 228//7 292//7 225//7
f 228//7 48//7 144//7 292//7
f 317//19 319//19 320//19 318//19
f 319//20 321//20 322//20 320//20
f 321//21 323//21 324//21 322//21
f 323//22 325//22 326//22 324//22
f 325//23 327//23 328//23 326//23
f 327//24 329//24 330//24 328//24
f 329//25 331//25 332//25 330//25
f 331//26 333//26 334//26 332//26
f 333//27 335//27 336//27 334//27
f 335//28 337//28 338//28 336//28
f 337//29 339//29 340//29 338//29
f 339//30 341//30 342//30 340//30
f 341//31 343//31 344//31 342//31
f 343//32 345//32 346//32 344//32
f 345//33 347//33 348//33 346//33
f 347//34 349//34 350//34 348//34
f 349//35 351//35 352//35 350//35
f 351//36 353//36 354//36 352//36
f 355//37 293//37 294//37 356//37
f 315//7 313//7 311//7 309//7 307//7 305//7 303//7 301//7 299//7 297//7 295//7 293//7 355//7 353//7 351//7 349//7 347//7 345//7 343//7 341//7 339//7 337//7 335//7 333//7 331//7 329//7 327//7 325//7 323//7 321//7 319//7 317//7
f 353//38 355//38 356//38 354//38
f 326//39 145//39 265//39
f 147//40 310//40 265//40
f 147//40 290//40 310//40
f 94//41 294//41 290//41
f 94//41 243//41 294//41
f 96//42 342//42 243//42
f 96//42 272//42 342//42
f 145//39 326//39 272//39
f 326//43 328//43 272//43
f 328//44 330//44 272//44
f 330//45 332//45 272//45
f 332//46 334//46 272//46
f 334//47 336//47 272//47
f 336//48 338//48 272//48
f 338//49 340//49 272//49
f 342//50 272//50 340//50
f 342//51 344//51 243//51
f 344//52 346//52 243//52
f 346//53 348//53 243//53
f 348//54 350//54 243//54
f 350//55 352//55 243//55
f 352//56 354//56 243//56
f 354//57 356//57 243//57
f 294//58 243//58 356//58
f 294//59 296//59 290//59
f 296//60 298//60 290//60
f 298//61 300//61 290//61
f 300//62 302//62 290//62
f 302//63 304//63 290//63
f 304//64 306//64 290//64
f 306//65 308//65 290//65
f 310//66 290//66 308//66
f 310//67 312//67 265//67
f 312//68 314//68 265//68
f 314//69 316//69 265//69
f 316//70 318//70 265//70
f 318//71 320//71 265//71
f 320//72 322//72 265//72
f 322//73 324//73 265//73
f 326//74 265//74 324//74
f 86//7 8//7 88//7 247//7
f 30//7 86//7 247//7 202//7
f 126//7 30//7 202//7 248//7
f 14//7 126//7 248//7 150//7
f 98//7 14//7 150//7 244//7
f 42//7 98//7 244//7 206//7
f 138//7 42//7 206//7 245//7
f 10//7 138//7 245//7 146//7
f 90//7 10//7 146//7 256//7
f 34//7 90//7 256//7 190//7
f 130//7 34//7 190//7 257//7
f 18//7 130//7 257//7 154//7
f 102//7 18//7 154//7 253//7
f 46//7 102//7 253//7 194//7
f 142//7 46//7 194//7 254//7
f 141//7 5//7 142//7 254//7
f 85//7 261//7 185//7 282//7 117//7 234//7 221//7 291//7 93//7 270//7 173//7 279//7 121//7 231//7 225//7 292//7 144//7 7//7 87//7 31//7 127//7 15//7 99//7 43//7 139//7 11//7 91//7 35//7 131//7 19//7 103//7 47//7 143//7 6//7
